ffmpeg started on 2025-05-28 at 22:13:21
Report written to "D:\Convert\FFMetrics\reports\ssim_report-6.txt"
Log level: 32
Command line:
ffmpeg -hide_banner -nostdin -i "G:\\\xc0\xed\xe8\xec\xe5\\\xce\xed\xe3\xee\xe8\xed\xe3\xe8\\!_36_\xce\xf1\xe5\xed\xfc_2024\\JamClub\\\xcc\xe5\xf5\xe0\xed\xe8\xf7\xe5\xf1\xea\xe8\xe5 \xf0\xf3\xea\xe8\\JamClub_Mecha_ude_TV_10_1080p_HEVC.mkv" -i "G:\\\xc0\xed\xe8\xec\xe5\\\xce\xed\xe3\xee\xe8\xed\xe3\xe8\\!_36_\xce\xf1\xe5\xed\xfc_2024\\JamClub\\\xcc\xe5\xf5\xe0\xed\xe8\xf7\xe5\xf1\xea\xe8\xe5 \xf0\xf3\xea\xe8\\JamClub_Mecha_ude_TV_10_1080p.mp4" -lavfi "[0:v]settb=AVTB,setpts=PTS-STARTPTS,format=pix_fmts=yuv420p10,fps=24000/1001,scale=1920:1080:flags=bicubic[main];[1:v]settb=AVTB,setpts=PTS-STARTPTS,format=pix_fmts=yuv420p,fps=24000/1001,scale=1920:1080:flags=bicubic[ref];[main][ref]ssim=eof_action=endall:stats_file='D\\:/Convert/FFMetrics/logs/ssim_logfile-6.txt'" -f null -
Input #0, matroska,webm, from 'G:\Аниме\Онгоинги\!_36_Осень_2024\JamClub\Механические руки\JamClub_Mecha_ude_TV_10_1080p_HEVC.mkv':
  Metadata:
    COMPATIBLE_BRANDS: isomiso2avc1mp41
    MAJOR_BRAND     : isom
    MINOR_VERSION   : 512
    ENCODER         : Lavf61.7.100
  Duration: 00:24:04.33, start: -0.001000, bitrate: 1377 kb/s
  Stream #0:0: Video: hevc (Main 10), yuv420p10le(tv, bt709, progressive), 1920x1080 [SAR 1:1 DAR 16:9], 23.98 fps, 23.98 tbr, 1k tbn (default)
      Metadata:
        HANDLER_NAME    : VideoHandler
        VENDOR_ID       : [0][0][0][0]
        ENCODER         : Lavc61.19.100 libx265
        BPS             : 1180208
        DURATION        : 00:24:04.192708333
        NUMBER_OF_FRAMES: 34626
        NUMBER_OF_BYTES : 213055930
        _STATISTICS_WRITING_APP: mkvpropedit v66.0.0 ('Josie') 64-bit
        _STATISTICS_WRITING_DATE_UTC: 2025-05-28 16:24:38
        _STATISTICS_TAGS: BPS DURATION NUMBER_OF_FRAMES NUMBER_OF_BYTES
  Stream #0:1(eng): Audio: aac (LC), 48000 Hz, stereo, fltp (default)
      Metadata:
        HANDLER_NAME    : SoundHandler
        VENDOR_ID       : [0][0][0][0]
        ENCODER         : Lavc61.19.100 aac
        BPS             : 193816
        DURATION        : 00:24:04.291000000
        NUMBER_OF_FRAMES: 67702
        NUMBER_OF_BYTES : 34991011
        _STATISTICS_WRITING_APP: mkvpropedit v66.0.0 ('Josie') 64-bit
        _STATISTICS_WRITING_DATE_UTC: 2025-05-28 16:24:38
        _STATISTICS_TAGS: BPS DURATION NUMBER_OF_FRAMES NUMBER_OF_BYTES
Input #1, mov,mp4,m4a,3gp,3g2,mj2, from 'G:\Аниме\Онгоинги\!_36_Осень_2024\JamClub\Механические руки\JamClub_Mecha_ude_TV_10_1080p.mp4':
  Metadata:
    major_brand     : isom
    minor_version   : 512
    compatible_brands: isomiso2avc1mp41
    encoder         : Lavf60.16.100
  Duration: 00:24:04.31, start: 0.000000, bitrate: 3815 kb/s
  Stream #1:0[0x1](und): Video: h264 (High) (avc1 / 0x31637661), yuv420p(progressive), 1920x1080 [SAR 1:1 DAR 16:9], 3618 kb/s, 23.98 fps, 23.98 tbr, 90k tbn (default)
      Metadata:
        handler_name    : VideoHandler
        vendor_id       : [0][0][0][0]
  Stream #1:1[0x2](eng): Audio: aac (LC) (mp4a / 0x6134706D), 48000 Hz, stereo, fltp, 191 kb/s (default)
      Metadata:
        handler_name    : SoundHandler
        vendor_id       : [0][0][0][0]
Stream mapping:
  Stream #0:0 (hevc) -> settb:default
  Stream #1:0 (h264) -> settb:default
  ssim:default -> Stream #0:0 (wrapped_avframe)
  Stream #0:1 -> #0:1 (aac (native) -> pcm_s16le (native))
Output #0, null, to 'pipe:':
  Metadata:
    COMPATIBLE_BRANDS: isomiso2avc1mp41
    MAJOR_BRAND     : isom
    MINOR_VERSION   : 512
    encoder         : Lavf61.7.100
  Stream #0:0: Video: wrapped_avframe, yuv420p10le(tv, bt709, progressive), 1920x1080 [SAR 1:1 DAR 16:9], q=2-31, 200 kb/s, 23.98 fps, 23.98 tbn
      Metadata:
        encoder         : Lavc61.19.100 wrapped_avframe
  Stream #0:1(eng): Audio: pcm_s16le, 48000 Hz, stereo, s16, 1536 kb/s (default)
      Metadata:
        HANDLER_NAME    : SoundHandler
        VENDOR_ID       : [0][0][0][0]
        _STATISTICS_TAGS: BPS DURATION NUMBER_OF_FRAMES NUMBER_OF_BYTES
        BPS             : 193816
        DURATION        : 00:24:04.291000000
        NUMBER_OF_FRAMES: 67702
        NUMBER_OF_BYTES : 34991011
        _STATISTICS_WRITING_APP: mkvpropedit v66.0.0 ('Josie') 64-bit
        _STATISTICS_WRITING_DATE_UTC: 2025-05-28 16:24:38
        encoder         : Lavc61.19.100 pcm_s16le
frame=  113 fps=0.0 q=-0.0 size=N/A time=00:00:04.71 bitrate=N/A speed=9.08x    frame=  280 fps=269 q=-0.0 size=N/A time=00:00:11.67 bitrate=N/A speed=11.2x    frame=  478 fps=308 q=-0.0 size=N/A time=00:00:19.93 bitrate=N/A speed=12.9x    frame=  758 fps=366 q=-0.0 size=N/A time=00:00:31.61 bitrate=N/A speed=15.3x    frame=  995 fps=385 q=-0.0 size=N/A time=00:00:41.49 bitrate=N/A speed=  16x    frame= 1170 fps=378 q=-0.0 size=N/A time=00:00:48.79 bitrate=N/A speed=15.8x    frame= 1343 fps=373 q=-0.0 size=N/A time=00:00:56.01 bitrate=N/A speed=15.5x    frame= 1590 fps=385 q=-0.0 size=N/A time=00:01:06.31 bitrate=N/A speed=16.1x    frame= 1736 fps=373 q=-0.0 size=N/A time=00:01:12.40 bitrate=N/A speed=15.6x    frame= 1898 fps=368 q=-0.0 size=N/A time=00:01:19.16 bitrate=N/A speed=15.3x    frame= 2048 fps=360 q=-0.0 size=N/A time=00:01:25.41 bitrate=N/A speed=  15x    frame= 2249 fps=363 q=-0.0 size=N/A time=00:01:33.80 bitrate=N/A speed=15.2x    frame= 2442 fps=364 q=-0.0 size=N/A time=00:01:41.85 bitrate=N/A speed=15.2x    frame= 2688 fps=372 q=-0.0 size=N/A time=00:01:52.11 bitrate=N/A speed=15.5x    frame= 2937 fps=379 q=-0.0 size=N/A time=00:02:02.49 bitrate=N/A speed=15.8x    frame= 3199 fps=388 q=-0.0 size=N/A time=00:02:13.42 bitrate=N/A speed=16.2x    frame= 3482 fps=397 q=-0.0 size=N/A time=00:02:25.22 bitrate=N/A speed=16.5x    frame= 3733 fps=402 q=-0.0 size=N/A time=00:02:35.69 bitrate=N/A speed=16.8x    frame= 3992 fps=407 q=-0.0 size=N/A time=00:02:46.49 bitrate=N/A speed=  17x    frame= 4265 fps=413 q=-0.0 size=N/A time=00:02:57.88 bitrate=N/A speed=17.2x    frame= 4542 fps=419 q=-0.0 size=N/A time=00:03:09.43 bitrate=N/A speed=17.5x    frame= 4786 fps=421 q=-0.0 size=N/A time=00:03:19.61 bitrate=N/A speed=17.6x    frame= 5068 fps=426 q=-0.0 size=N/A time=00:03:31.37 bitrate=N/A speed=17.8x    frame= 5340 fps=431 q=-0.0 size=N/A time=00:03:42.72 bitrate=N/A speed=  18x    frame= 5584 fps=433 q=-0.0 size=N/A time=00:03:52.89 bitrate=N/A speed=  18x    frame= 5835 fps=435 q=-0.0 size=N/A time=00:04:03.36 bitrate=N/A speed=18.1x    frame= 6088 fps=437 q=-0.0 size=N/A time=00:04:13.92 bitrate=N/A speed=18.2x    frame= 6365 fps=440 q=-0.0 size=N/A time=00:04:25.47 bitrate=N/A speed=18.4x    frame= 6658 fps=445 q=-0.0 size=N/A time=00:04:37.69 bitrate=N/A speed=18.5x    frame= 6935 fps=448 q=-0.0 size=N/A time=00:04:49.24 bitrate=N/A speed=18.7x    frame= 7184 fps=449 q=-0.0 size=N/A time=00:04:59.63 bitrate=N/A speed=18.7x    frame= 7396 fps=448 q=-0.0 size=N/A time=00:05:08.47 bitrate=N/A speed=18.7x    frame= 7556 fps=444 q=-0.0 size=N/A time=00:05:15.14 bitrate=N/A speed=18.5x    frame= 7786 fps=444 q=-0.0 size=N/A time=00:05:24.74 bitrate=N/A speed=18.5x    frame= 8063 fps=446 q=-0.0 size=N/A time=00:05:36.29 bitrate=N/A speed=18.6x    frame= 8321 fps=448 q=-0.0 size=N/A time=00:05:47.05 bitrate=N/A speed=18.7x    frame= 8616 fps=451 q=-0.0 size=N/A time=00:05:59.35 bitrate=N/A speed=18.8x    frame= 8881 fps=453 q=-0.0 size=N/A time=00:06:10.41 bitrate=N/A speed=18.9x    frame= 9165 fps=455 q=-0.0 size=N/A time=00:06:22.25 bitrate=N/A speed=  19x    frame= 9456 fps=458 q=-0.0 size=N/A time=00:06:34.39 bitrate=N/A speed=19.1x    frame= 9715 fps=459 q=-0.0 size=N/A time=00:06:45.19 bitrate=N/A speed=19.2x    frame=10012 fps=462 q=-0.0 size=N/A time=00:06:57.58 bitrate=N/A speed=19.3x    frame=10297 fps=464 q=-0.0 size=N/A time=00:07:09.47 bitrate=N/A speed=19.4x    frame=10567 fps=465 q=-0.0 size=N/A time=00:07:20.73 bitrate=N/A speed=19.4x    frame=10817 fps=466 q=-0.0 size=N/A time=00:07:31.15 bitrate=N/A speed=19.4x    frame=11075 fps=467 q=-0.0 size=N/A time=00:07:41.91 bitrate=N/A speed=19.5x    frame=11337 fps=467 q=-0.0 size=N/A time=00:07:52.84 bitrate=N/A speed=19.5x    frame=11576 fps=467 q=-0.0 size=N/A time=00:08:02.81 bitrate=N/A speed=19.5x    frame=11791 fps=466 q=-0.0 size=N/A time=00:08:11.78 bitrate=N/A speed=19.4x    frame=12026 fps=466 q=-0.0 size=N/A time=00:08:21.58 bitrate=N/A speed=19.4x    frame=12240 fps=465 q=-0.0 size=N/A time=00:08:30.51 bitrate=N/A speed=19.4x    frame=12468 fps=465 q=-0.0 size=N/A time=00:08:40.01 bitrate=N/A speed=19.4x    frame=12652 fps=463 q=-0.0 size=N/A time=00:08:47.69 bitrate=N/A speed=19.3x    frame=12877 fps=462 q=-0.0 size=N/A time=00:08:57.07 bitrate=N/A speed=19.3x    frame=13074 fps=461 q=-0.0 size=N/A time=00:09:05.29 bitrate=N/A speed=19.2x    frame=13266 fps=459 q=-0.0 size=N/A time=00:09:13.30 bitrate=N/A speed=19.2x    frame=13494 fps=459 q=-0.0 size=N/A time=00:09:22.81 bitrate=N/A speed=19.1x    frame=13750 fps=459 q=-0.0 size=N/A time=00:09:33.48 bitrate=N/A speed=19.2x    frame=13961 fps=459 q=-0.0 size=N/A time=00:09:42.29 bitrate=N/A speed=19.1x    frame=14167 fps=458 q=-0.0 size=N/A time=00:09:50.88 bitrate=N/A speed=19.1x    frame=14385 fps=457 q=-0.0 size=N/A time=00:09:59.97 bitrate=N/A speed=19.1x    frame=14612 fps=457 q=-0.0 size=N/A time=00:10:09.44 bitrate=N/A speed=  19x    frame=14875 fps=458 q=-0.0 size=N/A time=00:10:20.41 bitrate=N/A speed=19.1x    frame=15117 fps=458 q=-0.0 size=N/A time=00:10:30.50 bitrate=N/A speed=19.1x    frame=15321 fps=457 q=-0.0 size=N/A time=00:10:39.01 bitrate=N/A speed=19.1x    frame=15529 fps=456 q=-0.0 size=N/A time=00:10:47.68 bitrate=N/A speed=  19x    frame=15705 fps=454 q=-0.0 size=N/A time=00:10:55.02 bitrate=N/A speed=  19x    frame=15917 fps=454 q=-0.0 size=N/A time=00:11:03.87 bitrate=N/A speed=18.9x    frame=16125 fps=453 q=-0.0 size=N/A time=00:11:12.54 bitrate=N/A speed=18.9x    frame=16327 fps=452 q=-0.0 size=N/A time=00:11:20.97 bitrate=N/A speed=18.9x    frame=16531 fps=451 q=-0.0 size=N/A time=00:11:29.48 bitrate=N/A speed=18.8x    frame=16749 fps=451 q=-0.0 size=N/A time=00:11:38.57 bitrate=N/A speed=18.8x    frame=16966 fps=450 q=-0.0 size=N/A time=00:11:47.62 bitrate=N/A speed=18.8x    frame=17176 fps=450 q=-0.0 size=N/A time=00:11:56.38 bitrate=N/A speed=18.8x    frame=17415 fps=450 q=-0.0 size=N/A time=00:12:06.35 bitrate=N/A speed=18.8x    frame=17656 fps=450 q=-0.0 size=N/A time=00:12:16.40 bitrate=N/A speed=18.8x    frame=17854 fps=449 q=-0.0 size=N/A time=00:12:24.66 bitrate=N/A speed=18.7x    frame=18082 fps=449 q=-0.0 size=N/A time=00:12:34.17 bitrate=N/A speed=18.7x    frame=18321 fps=450 q=-0.0 size=N/A time=00:12:44.13 bitrate=N/A speed=18.8x    frame=18590 fps=450 q=-0.0 size=N/A time=00:12:55.35 bitrate=N/A speed=18.8x    frame=18792 fps=450 q=-0.0 size=N/A time=00:13:03.78 bitrate=N/A speed=18.8x    frame=18961 fps=448 q=-0.0 size=N/A time=00:13:10.83 bitrate=N/A speed=18.7x    frame=19154 fps=447 q=-0.0 size=N/A time=00:13:18.88 bitrate=N/A speed=18.7x    frame=19306 fps=446 q=-0.0 size=N/A time=00:13:25.22 bitrate=N/A speed=18.6x    frame=19573 fps=446 q=-0.0 size=N/A time=00:13:36.35 bitrate=N/A speed=18.6x    frame=19825 fps=447 q=-0.0 size=N/A time=00:13:46.86 bitrate=N/A speed=18.6x    frame=20050 fps=447 q=-0.0 size=N/A time=00:13:56.25 bitrate=N/A speed=18.6x    frame=20307 fps=447 q=-0.0 size=N/A time=00:14:06.97 bitrate=N/A speed=18.7x    frame=20537 fps=447 q=-0.0 size=N/A time=00:14:16.56 bitrate=N/A speed=18.7x    frame=20820 fps=449 q=-0.0 size=N/A time=00:14:28.36 bitrate=N/A speed=18.7x    frame=21116 fps=450 q=-0.0 size=N/A time=00:14:40.71 bitrate=N/A speed=18.8x    frame=21407 fps=451 q=-0.0 size=N/A time=00:14:52.85 bitrate=N/A speed=18.8x    frame=21691 fps=452 q=-0.0 size=N/A time=00:15:04.69 bitrate=N/A speed=18.9x    frame=21958 fps=453 q=-0.0 size=N/A time=00:15:15.83 bitrate=N/A speed=18.9x    frame=22235 fps=454 q=-0.0 size=N/A time=00:15:27.38 bitrate=N/A speed=18.9x    frame=22511 fps=455 q=-0.0 size=N/A time=00:15:38.89 bitrate=N/A speed=  19x    frame=22764 fps=455 q=-0.0 size=N/A time=00:15:49.44 bitrate=N/A speed=  19x    frame=23041 fps=456 q=-0.0 size=N/A time=00:16:01.00 bitrate=N/A speed=  19x    frame=23335 fps=457 q=-0.0 size=N/A time=00:16:13.26 bitrate=N/A speed=19.1x    frame=23621 fps=458 q=-0.0 size=N/A time=00:16:25.19 bitrate=N/A speed=19.1x    frame=23897 fps=459 q=-0.0 size=N/A time=00:16:36.70 bitrate=N/A speed=19.1x    frame=24126 fps=459 q=-0.0 size=N/A time=00:16:46.25 bitrate=N/A speed=19.1x    frame=24392 fps=459 q=-0.0 size=N/A time=00:16:57.34 bitrate=N/A speed=19.1x    frame=24663 fps=460 q=-0.0 size=N/A time=00:17:08.65 bitrate=N/A speed=19.2x    frame=24913 fps=460 q=-0.0 size=N/A time=00:17:19.07 bitrate=N/A speed=19.2x    frame=25186 fps=461 q=-0.0 size=N/A time=00:17:30.46 bitrate=N/A speed=19.2x    frame=25474 fps=462 q=-0.0 size=N/A time=00:17:42.47 bitrate=N/A speed=19.3x    frame=25746 fps=462 q=-0.0 size=N/A time=00:17:53.82 bitrate=N/A speed=19.3x    frame=26008 fps=463 q=-0.0 size=N/A time=00:18:04.75 bitrate=N/A speed=19.3x    frame=26200 fps=462 q=-0.0 size=N/A time=00:18:12.75 bitrate=N/A speed=19.3x    frame=26424 fps=462 q=-0.0 size=N/A time=00:18:22.10 bitrate=N/A speed=19.3x    frame=26691 fps=462 q=-0.0 size=N/A time=00:18:33.23 bitrate=N/A speed=19.3x    frame=26960 fps=463 q=-0.0 size=N/A time=00:18:44.45 bitrate=N/A speed=19.3x    frame=27228 fps=463 q=-0.0 size=N/A time=00:18:55.63 bitrate=N/A speed=19.3x    frame=27493 fps=463 q=-0.0 size=N/A time=00:19:06.68 bitrate=N/A speed=19.3x    frame=27763 fps=464 q=-0.0 size=N/A time=00:19:17.94 bitrate=N/A speed=19.4x    frame=28044 fps=465 q=-0.0 size=N/A time=00:19:29.66 bitrate=N/A speed=19.4x    frame=28326 fps=465 q=-0.0 size=N/A time=00:19:41.43 bitrate=N/A speed=19.4x    frame=28550 fps=465 q=-0.0 size=N/A time=00:19:50.77 bitrate=N/A speed=19.4x    frame=28763 fps=465 q=-0.0 size=N/A time=00:19:59.65 bitrate=N/A speed=19.4x    frame=29016 fps=465 q=-0.0 size=N/A time=00:20:10.20 bitrate=N/A speed=19.4x    frame=29230 fps=464 q=-0.0 size=N/A time=00:20:19.13 bitrate=N/A speed=19.4x    frame=29462 fps=464 q=-0.0 size=N/A time=00:20:28.81 bitrate=N/A speed=19.4x    frame=29721 fps=465 q=-0.0 size=N/A time=00:20:39.61 bitrate=N/A speed=19.4x    frame=29983 fps=465 q=-0.0 size=N/A time=00:20:50.54 bitrate=N/A speed=19.4x    frame=30254 fps=466 q=-0.0 size=N/A time=00:21:01.84 bitrate=N/A speed=19.4x    frame=30513 fps=466 q=-0.0 size=N/A time=00:21:12.64 bitrate=N/A speed=19.4x    frame=30755 fps=466 q=-0.0 size=N/A time=00:21:22.73 bitrate=N/A speed=19.4x    frame=30995 fps=466 q=-0.0 size=N/A time=00:21:32.74 bitrate=N/A speed=19.4x    frame=31268 fps=466 q=-0.0 size=N/A time=00:21:44.13 bitrate=N/A speed=19.4x    frame=31504 fps=466 q=-0.0 size=N/A time=00:21:53.97 bitrate=N/A speed=19.4x    frame=31785 fps=467 q=-0.0 size=N/A time=00:22:05.69 bitrate=N/A speed=19.5x    frame=32079 fps=468 q=-0.0 size=N/A time=00:22:17.96 bitrate=N/A speed=19.5x    frame=32333 fps=468 q=-0.0 size=N/A time=00:22:28.55 bitrate=N/A speed=19.5x    frame=32613 fps=468 q=-0.0 size=N/A time=00:22:40.23 bitrate=N/A speed=19.5x    frame=32881 fps=469 q=-0.0 size=N/A time=00:22:51.41 bitrate=N/A speed=19.5x    frame=33143 fps=469 q=-0.0 size=N/A time=00:23:02.33 bitrate=N/A speed=19.6x    frame=33398 fps=469 q=-0.0 size=N/A time=00:23:12.97 bitrate=N/A speed=19.6x    frame=33655 fps=469 q=-0.0 size=N/A time=00:23:23.69 bitrate=N/A speed=19.6x    frame=33909 fps=470 q=-0.0 size=N/A time=00:23:34.28 bitrate=N/A speed=19.6x    frame=34169 fps=470 q=-0.0 size=N/A time=00:23:45.13 bitrate=N/A speed=19.6x    frame=34423 fps=470 q=-0.0 size=N/A time=00:23:55.72 bitrate=N/A speed=19.6x    [Parsed_ssim_10 @ 0000023925be7fc0] SSIM Y:0.993457 (21.842440) U:0.994172 (22.344795) V:0.993376 (21.788674) All:0.993563 (21.913060)
[out#0/null @ 000002391f3c0ec0] video:14878KiB audio:270808KiB subtitle:0KiB other streams:0KiB global headers:0KiB muxing overhead: unknown
frame=34626 fps=470 q=-0.0 Lsize=N/A time=00:24:04.19 bitrate=N/A speed=19.6x    
